# xmcd
#
# Track frame offsets:
#	150
#	6262
#	16767
#	24482
#	39757
#	50692
#	59947
#	73807
#	87097
#	107887
#	122637
#	142960
#	151380
#	167290
#
# Disc length: 2414 seconds
#
# Revision: 2
# Processed by: cddbd v1.5.2PL0 Copyright (c) Steve Scherf et al.
# Submitted via: audiograbber 1.83.01
#
DISCID=b1096c0e
DTITLE=Baptist Generals, The - Dog
DYEAR=2000
DGENRE=Rock
TTITLE0=2-3rds Jim's head
TTITLE1=Pats the rub
TTITLE2=Sole spirit-ghost
TTITLE3=Wash sheets - Walls of blood
TTITLE4=Wrath you
TTITLE5=Evergone
TTITLE6=Goat driver
TTITLE7=Blue suit tobacco
TTITLE8=Sweet red wine
TTITLE9=Dancing magnetic people
TTITLE10=Clear creek
TTITLE11=March stretch
TTITLE12=Socials
TTITLE13=Damn the bloom
EXTD=
EXTT0=
EXTT1=
EXTT2=
EXTT3=
EXTT4=
EXTT5=
EXTT6=
EXTT7=
EXTT8=
EXTT9=
EXTT10=
EXTT11=
EXTT12=
EXTT13=
PLAYORDER=
